<?xml version="1.0" encoding="UTF-8"?>
<svg version="1.1" xmlns="http://www.w3.org/2000/svg" width="1254" height="1254">
<path d="M0 0 C413.82 0 827.64 0 1254 0 C1254 413.82 1254 827.64 1254 1254 C840.18 1254 426.36 1254 0 1254 C0 840.18 0 426.36 0 0 Z " fill="#050507" transform="translate(0,0)"/>
<path d="M0 0 C1.27520508 -0.00386719 1.27520508 -0.00386719 2.57617188 -0.0078125 C15.68380642 0.19154316 26.82516929 5.72087204 36.375 14.5390625 C45.0386328 23.91221695 48.67036978 36.15192615 48.49511719 48.71020508 C47.88674629 56.20523791 45.95334035 63.41208562 44.125 70.6875 C43.71162078 72.37712927 43.29919633 74.0669924 42.88769531 75.75708008 C39.77740461 88.45344272 36.44558228 101.0881012 32.96191406 113.68701172 C31.71919473 118.20107608 30.51161316 122.72418667 29.3125 127.25 C29.10915039 128.00692139 28.90580078 128.76384277 28.69628906 129.54370117 C27.64628786 133.50941195 26.78736995 137.44130546 26.1875 141.5 C27.98051169 140.92081409 29.77182403 140.33636745 31.5625 139.75 C32.56023438 139.42515625 33.55796875 139.1003125 34.5859375 138.765625 C37.273528 137.82117888 39.88529545 136.82487805 42.51953125 135.75 C90.82499031 116.30069675 90.82499031 116.30069675 112.4375 123.5625 C123.67873691 128.73288804 133.80248821 137.68875856 138.1875 149.5 C142.67419326 167.66337203 136.44038865 186.22550804 132.09130859 203.81494141 C131.23506538 207.30606379 130.43014748 210.80203792 129.66650391 214.31420898 C128.59162361 219.21910362 127.44275152 224.10763071 126.3125 229 C126.04928955 230.14259277 125.7860791 231.28518555 125.51489258 232.46240234 C124.3422147 237.5446029 123.16428637 242.624932 121.94140625 247.6953125 C121.75884277 248.45521484 121.5762793 249.21511719 121.38818359 249.99804688 C120.9121723 251.97093477 120.43091688 253.94255538 119.94921875 255.9140625 C119.39118093 258.54113285 118.99276698 260.99438023 118.70703125 263.6484375 C118.1875 267.5 118.1875 267.5 117.26342773 269.77514648 C115.95163701 273.09733762 115.19953378 276.46825771 114.453125 279.94921875 C114.29465591 280.67074631 114.13618683 281.39227386 113.97291565 282.13566589 C113.63364548 283.68222656 113.2962632 285.22920238 112.96060181 286.77655029 C112.0747444 290.85942218 111.17499678 294.9392397 110.27734375 299.01953125 C110.098582 299.83397705 109.91982025 300.64842285 109.73564148 301.48754883 C107.97187466 309.51228137 106.12899291 317.51788024 104.26879883 325.52075195 C102.907754 331.3776652 101.56683348 337.23840896 100.24804688 343.10498047 C98.25179816 351.98015205 96.15704341 360.82096169 93.88647461 369.63037109 C92.90793564 373.45886911 92.01185662 377.28079246 91.2578125 381.16015625 C89.69747665 389.1623948 87.72802757 397.07557765 85.84179688 405.00585938 C84.07306126 412.50667963 82.44792119 420.01335314 81.01147461 427.58520508 C80.15851462 431.83776945 79.06202952 436.02663409 77.99845886 440.23045349 C76.59056464 445.906667 75.32252435 451.61404851 74.04296875 457.3203125 C73.74788975 458.63096278 73.45266421 459.94158007 73.15730286 461.25216675 C72.38413152 464.68428227 71.61251149 468.1167444 70.84136963 471.54931641 C69.62333645 476.97044876 68.40349849 482.39117492 67.18275261 487.81169701 C66.88102737 489.15167405 66.57943886 490.49168189 66.27798653 491.83172035 C64.21353411 501.00699752 62.10860802 510.17222773 59.9765625 519.33203125 C58.27597137 526.64247472 56.64646299 533.95777769 55.16796875 541.31640625 C50.61368029 563.84727961 45.72089767 584.74229701 25.75 598.875 C17.09761668 604.05388858 7.79191985 607.49028328 -1.76171875 610.6015625 C-2.85917923 610.96470551 -3.95663971 611.32784851 -5.08735657 611.70199585 C-8.55636839 612.84876055 -12.02802269 613.98724896 -15.5 615.125 C-18.98214411 616.27148021 -22.46370313 617.41970629 -25.94477844 618.56942749 C-28.09995703 619.28066547 -30.2558345 619.98979042 -32.41252136 620.69644165 C-36.50582157 622.04288536 -40.58933338 623.38755971 -44.61450195 624.92724609 C-50.16915225 627.04786873 -55.81759758 628.90306516 -61.45155334 630.79980469 C-63.57193533 631.513698 -65.69173523 632.22929671 -67.81140137 632.9453125 C-73.07295229 634.72226361 -78.33547116 636.49634098 -83.59796143 638.27050781 C-88.05677172 639.7738505 -92.51520614 641.27829857 -96.97315979 642.78417969 C-99.04875791 643.4848126 -101.12488939 644.18384792 -103.2010498 644.8828125 C-109.44616502 646.98949995 -115.65189475 649.15753731 -121.8125 651.5 C-124.41476616 652.42589695 -127.02684495 653.32203988 -129.640625 654.21484375 C-130.74307556 654.59269516 -130.74307556 654.59269516 -131.86779785 654.97817993 C-134.26557103 655.79930722 -136.66400817 656.61847449 -139.0625 657.4375 C-139.88754028 657.71979462 -140.71258057 658.00208923 -141.56262207 658.29293823 C-151.01865724 661.52792753 -160.48321096 664.7353002 -169.96875 667.8828125 C-170.78132263 668.15257401 -171.59389526 668.42233551 -172.43109131 668.70027161 C-176.30560116 669.98550522 -180.18150572 671.26630494 -184.05957031 672.54077148 C-192.39585 675.27489998 -192.39585 675.27489998 -200.578125 678.43359375 C-209.65618075 682.17805385 -219.17006855 684.87897812 -228.51757812 687.86376953 C-231.15848626 688.70837997 -233.79800568 689.55723351 -236.4375 690.40625 C-237.62545166 690.78299866 -237.62545166 690.78299866 -238.83740234 691.1673584 C-242.76026921 692.4296324 -246.59422004 693.79234225 -250.40454102 695.36328125 C-257.38168661 698.20023793 -264.55650635 700.45355725 -271.71484375 702.78125 C-273.24372715 703.28127875 -274.77249807 703.78165154 -276.30116272 704.28234863 C-280.30231529 705.59213401 -284.3046273 706.89833546 -288.30731201 708.20343018 C-294.70789156 710.29068346 -301.10712049 712.38205714 -307.50549507 714.47605896 C-309.71983108 715.19994851 -311.93493515 715.92144762 -314.15013123 716.6427002 C-315.53243504 717.09406225 -316.91460565 717.54583249 -318.29663086 717.99804688 C-318.95130057 718.21220749 -319.60597029 718.4263681 -320.28047848 718.64701843 C-325.08123148 720.22982789 -329.82214961 721.94391934 -334.53968811 723.75878906 C-338.13831172 724.93237461 -341.55400508 725.10397935 -345.3125 725 C-346.04098145 724.98646484 -346.76946289 724.97292969 -347.52001953 724.95898438 C-358.73783342 724.53201735 -367.50349834 719.9741259 -375.8125 712.5 C-382.42688786 704.90221028 -385.40754175 695.87074103 -385.375 685.875 C-385.37137451 684.65792358 -385.37137451 684.65792358 -385.36767578 683.41625977 C-385.08802766 673.77205499 -382.31929451 664.8424618 -379.67236328 655.62988281 C-378.14395948 650.06652771 -376.89347199 644.43977808 -375.625 638.8125 C-373.78699234 630.681219 -371.8668279 622.57963653 -369.8125 614.5 C-370.19051758 615.10875977 -370.56853516 615.71751953 -370.95800781 616.34472656 C-378.1751943 627.82874284 -386.67504435 634.76758143 -399.8125 638.5 C-403.14453125 638.80078125 -403.14453125 638.80078125 -406.625 638.8125 C-407.76582031 638.82925781 -408.90664063 638.84601562 -410.08203125 638.86328125 C-418.9512634 637.99957592 -426.2518377 633.89495269 -433.9375 629.625 C-434.98591064 629.04983643 -436.03432129 628.47467285 -437.11450195 627.88208008 C-445.0419202 623.51929596 -452.92317153 619.07457675 -460.78881836 614.6015625 C-470.0157993 609.35997741 -479.30995049 604.24283514 -488.6159668 599.14331055 C-520.91970125 581.3991967 -520.91970125 581.3991967 -527.1875 564.875 C-529.07427376 555.28552098 -528.35337213 545.78671608 -525.64819336 536.49682617 C-524.13807025 531.08147089 -523.07833601 525.56519949 -521.9375 520.0625 C-520.21796602 511.89989933 -518.45474463 503.76630933 -516.375 495.6875 C-514.23634699 487.36810506 -512.31407516 479.00710407 -510.4375 470.625 C-508.14827123 460.40598835 -505.82693515 450.19620757 -503.4375 440 C-497.49581775 414.62423997 -491.64832141 389.2270875 -485.875 363.8125 C-485.66724945 362.89840363 -485.4594989 361.98430725 -485.24545288 361.04251099 C-483.13302371 351.74694465 -481.02480127 342.45047149 -478.93293762 333.1502533 C-473.78243203 310.25588651 -468.41255569 287.4293676 -462.80670166 264.64242554 C-460.36176503 254.68955058 -457.96899682 244.72420334 -455.5793457 234.75793457 C-454.81702633 231.58136115 -454.05228565 228.40537852 -453.28710938 225.22949219 C-451.05550928 215.95396105 -448.84035321 206.67601741 -446.71636963 197.37516785 C-445.83803012 193.53010743 -444.94958737 189.6874073 -444.06103516 185.84469604 C-443.65237606 184.06223277 -443.24917873 182.2785065 -442.85205078 180.49343872 C-439.72316219 166.43078909 -435.48015564 154.53350544 -425.8125 143.5 C-425.28011719 142.88511719 -424.74773437 142.27023437 -424.19921875 141.63671875 C-416.60240728 133.4597212 -405.87572992 126.95794125 -394.9140625 124.6953125 C-388.3562393 123.29025684 -382.12235971 120.92732815 -375.8125 118.6875 C-367.12952712 115.63672575 -358.44982193 112.68908272 -349.58886719 110.19433594 C-343.93873311 108.5869456 -338.43139588 106.64969242 -332.90551758 104.66137695 C-326.60082215 102.39940932 -320.22795291 100.42463587 -313.8125 98.5 C-305.09350965 95.85449438 -296.46026139 93.05394477 -287.875 90 C-280.85111706 87.50302377 -273.80401675 85.21613037 -266.63110352 83.18554688 C-258.1601145 80.78645444 -249.88457187 77.83378166 -241.57397461 74.93481445 C-231.70750792 71.49912978 -221.85998671 68.08921879 -211.79760742 65.2644043 C-205.4530632 63.45997803 -199.27027799 61.2395833 -193.06054688 59.02148438 C-187.05921804 56.89318771 -181.04410874 55.07867918 -174.90234375 53.39453125 C-171.97875172 52.54813103 -169.16053759 51.57059758 -166.3125 50.5 C-162.37301227 49.01911854 -158.43385446 47.8004881 -154.375 46.6875 C-147.58993344 44.80110237 -140.98018824 42.5239375 -134.35571289 40.13745117 C-128.81704871 38.15398387 -123.23596048 36.38519236 -117.60766602 34.67382812 C-113.14130602 33.29240266 -108.69493183 31.85488674 -104.25 30.40625 C-103.40381607 30.13051147 -102.55763214 29.85477295 -101.68580627 29.57067871 C-99.06111723 28.7145604 -96.43675038 27.85746194 -93.8125 27 C-73.75712375 20.44699657 -73.75712375 20.44699657 -64.08886719 17.50146484 C-57.94973574 15.62495835 -51.82682586 13.69625734 -45.70214844 11.77319336 C-44.19615387 11.30058122 -42.68996969 10.82857289 -41.18359375 10.35717773 C-38.94749511 9.65742469 -36.71201827 8.95570989 -34.4765625 8.25390625 C-33.74710922 8.02631622 -33.01765594 7.7987262 -32.26609802 7.5642395 C-28.73670734 6.45550846 -25.23147994 5.30852651 -21.75024414 4.05615234 C-14.36723495 1.41536855 -7.87291007 -0.26874169 0 0 Z " fill="#F47151" transform="translate(809.8125,259.5)"/>
<path d="M0 0 C9.22287418 5.84588332 17.87585677 14.40088223 20.56640625 25.29296875 C23.42138175 43.11727526 18.14965582 60.14302322 13.90380859 77.31494141 C13.04756538 80.80606379 12.24264748 84.30203792 11.47900391 87.81420898 C10.40412361 92.71910362 9.25525152 97.60763071 8.125 102.5 C7.86178955 103.64259277 7.5985791 104.78518555 7.32739258 105.96240234 C6.1547147 111.0446029 4.97678637 116.124932 3.75390625 121.1953125 C3.57134277 121.95521484 3.3887793 122.71511719 3.20068359 123.49804688 C2.7246723 125.47093477 2.24341688 127.44255538 1.76171875 129.4140625 C1.20368093 132.04113285 0.80526698 134.49438023 0.51953125 137.1484375 C-0 141 -0 141 -0.92407227 143.27514648 C-2.23586299 146.59733762 -2.98796622 149.96825771 -3.734375 153.44921875 C-3.97207863 154.53151009 -3.97207863 154.53151009 -4.21458435 155.63566589 C-4.55385452 157.18222656 -4.8912368 158.72920238 -5.22689819 160.27655029 C-6.1127556 164.35942218 -7.01250322 168.4392397 -7.91015625 172.51953125 C-8.088918 173.33397705 -8.26767975 174.14842285 -8.45185852 174.98754883 C-10.21562534 183.01228137 -12.05850709 191.01788024 -13.91870117 199.02075195 C-15.279746 204.8776652 -16.62066652 210.73840896 -17.93945312 216.60498047 C-19.93570184 225.48015205 -22.03045659 234.32096169 -24.30102539 243.13037109 C-25.27956436 246.95886911 -26.17564338 250.78079246 -26.9296875 254.66015625 C-28.49002335 262.6623948 -30.45947243 270.57557765 -32.34570312 278.50585938 C-34.11443874 286.00667963 -35.73957881 293.51335314 -37.17602539 301.08520508 C-38.02898538 305.33776945 -39.12547048 309.52663409 -40.18904114 313.73045349 C-41.59693536 319.406667 -42.86497565 325.11404851 -44.14453125 330.8203125 C-44.43961025 332.13096278 -44.73483579 333.44158007 -45.03019714 334.75216675 C-45.80336848 338.18428227 -46.57498851 341.6167444 -47.34613037 345.04931641 C-48.56416355 350.47044876 -49.78400151 355.89117492 -51.00474739 361.31169701 C-51.30647263 362.65167405 -51.60806114 363.99168189 -51.90951347 365.33172035 C-53.97396589 374.50699752 -56.07889198 383.67222773 -58.2109375 392.83203125 C-59.91152863 400.14247472 -61.54103701 407.45777769 -63.01953125 414.81640625 C-67.57381971 437.34727961 -72.46660233 458.24229701 -92.4375 472.375 C-101.08988332 477.55388858 -110.39558015 480.99028328 -119.94921875 484.1015625 C-121.04667923 484.46470551 -122.14413971 484.82784851 -123.27485657 485.20199585 C-126.74386839 486.34876055 -130.21552269 487.48724896 -133.6875 488.625 C-137.16964411 489.77148021 -140.65120313 490.91970629 -144.13227844 492.06942749 C-146.28745703 492.78066547 -148.4433345 493.48979042 -150.60002136 494.19644165 C-154.69332157 495.54288536 -158.77683338 496.88755971 -162.80200195 498.42724609 C-168.35665225 500.54786873 -174.00509758 502.40306516 -179.63905334 504.29980469 C-181.75943533 505.013698 -183.87923523 505.72929671 -185.99890137 506.4453125 C-191.26045229 508.22226361 -196.52297116 509.99634098 -201.78546143 511.77050781 C-206.24427172 513.2738505 -210.70270614 514.77829857 -215.16065979 516.28417969 C-217.23625791 516.9848126 -219.31238939 517.68384792 -221.3885498 518.3828125 C-227.63366502 520.48949995 -233.83939475 522.65753731 -240 525 C-242.60226616 525.92589695 -245.21434495 526.82203988 -247.828125 527.71484375 C-248.93057556 528.09269516 -248.93057556 528.09269516 -250.05529785 528.47817993 C-252.45307103 529.29930722 -254.85150817 530.11847449 -257.25 530.9375 C-258.07504028 531.21979462 -258.90008057 531.50208923 -259.75012207 531.79293823 C-269.20615724 535.02792753 -278.67071096 538.2353002 -288.15625 541.3828125 C-288.96882263 541.65257401 -289.78139526 541.92233551 -290.61859131 542.20027161 C-294.49310116 543.48550522 -298.36900572 544.76630494 -302.24707031 546.04077148 C-310.58335 548.77489998 -310.58335 548.77489998 -318.765625 551.93359375 C-327.84368075 555.67805385 -337.35756855 558.37897812 -346.70507812 561.36376953 C-349.34598626 562.20837997 -351.98550568 563.05723351 -354.625 563.90625 C-355.81295166 564.28299866 -355.81295166 564.28299866 -357.02490234 564.6673584 C-360.94776921 565.9296324 -364.78172004 567.29234225 -368.59204102 568.86328125 C-375.56918661 571.70023793 -382.74400635 573.95355725 -389.90234375 576.28125 C-391.43122715 576.78127875 -392.95999807 577.28165154 -394.48866272 577.78234863 C-398.48981529 579.09213401 -402.4921273 580.39833546 -406.49481201 581.70343018 C-412.89539156 583.79068346 -419.29462049 585.88205714 -425.69299507 587.97605896 C-427.90733108 588.69994851 -430.12243515 589.42144762 -432.33763123 590.1427002 C-433.71993504 590.59406225 -435.10210565 591.04583249 -436.48413086 591.49804688 C-437.13880057 591.71220749 -437.79347029 591.9263681 -438.46797848 592.14701843 C-443.26873148 593.72982789 -448.00964961 595.44391934 -452.72718811 597.25878906 C-456.32581172 598.43237461 -459.74150508 598.60397935 -463.5 598.5 C-464.22848145 598.48646484 -464.95696289 598.47292969 -465.70751953 598.45898438 C-476.92533342 598.03201735 -485.69099834 593.4741259 -494 586 C-500.61438786 578.40221028 -503.59504175 569.37074103 -503.5625 559.375 C-503.55887451 558.15792358 -503.55887451 558.15792358 -503.55517578 556.91625977 C-503.27552766 547.27205499 -500.50679451 538.3424618 -497.85986328 529.12988281 C-496.33145948 523.56652771 -495.08097199 517.93977808 -493.8125 512.3125 C-491.97449234 504.181219 -490.0543279 496.07963653 -488 488 C-488.37801758 488.60875977 -488.75603516 489.21751953 -489.14550781 489.84472656 C-496.3626943 501.32874284 -504.86254435 508.26758143 -518 512 C-521.33203125 512.30078125 -521.33203125 512.30078125 -524.8125 512.3125 C-525.95332031 512.32925781 -527.09414063 512.34601562 -528.26953125 512.36328125 C-537.1387634 511.49957592 -544.4393377 507.39495269 -552.125 503.125 C-553.17341064 502.54983643 -554.22182129 501.97467285 -555.30200195 501.38208008 C-563.2294202 497.01929596 -571.11067153 492.57457675 -578.97631836 488.1015625 C-588.2032993 482.85997741 -597.49745049 477.74283514 -606.8034668 472.64331055 C-633.64607181 457.89893974 -633.64607181 457.89893974 -636.4921875 449.24609375 C-637.75198069 443.67393155 -637.91349438 438.86212316 -635.375 433.6875 C-630.77001445 428.4765953 -626.70160878 425.53245815 -620.14453125 423.21484375 C-619.46268265 422.97040024 -618.78083405 422.72595673 -618.07832336 422.47410583 C-615.72362534 421.63526782 -613.36232978 420.81708493 -611 420 C-609.17353522 419.35990899 -607.34720684 418.71942868 -605.52099609 418.07861328 C-600.36038752 416.27450444 -595.19320538 414.48993839 -590.02392578 412.71084595 C-584.27877308 410.7334536 -578.53606448 408.74898185 -572.79296875 406.765625 C-571.63389008 406.3655574 -570.4748114 405.96548981 -569.28060913 405.55329895 C-558.01238163 401.66266068 -546.75458921 397.74238888 -535.5 393.8125 C-534.64763763 393.51497833 -533.79527527 393.21745667 -532.91708374 392.91091919 C-525.47400478 390.31276508 -518.03161795 387.71265928 -510.59204102 385.10449219 C-509.24565552 384.63265755 -509.24565552 384.63265755 -507.87207031 384.15129089 C-506.16091184 383.55152015 -504.44988356 382.95137775 -502.73901367 382.3507843 C-494.48840667 379.4590494 -486.19228891 376.71039147 -477.88867188 373.97509766 C-474.32069329 372.79866979 -470.75408871 371.6181341 -467.1875 370.4375 C-466.0420874 370.06125488 -464.8966748 369.68500977 -463.71655273 369.29736328 C-458.73807225 367.64763364 -453.8089338 365.96694879 -448.95703125 363.97265625 C-442.20978386 361.20971886 -435.23542048 359.1591123 -428.27734375 357 C-422.48827532 355.18159323 -416.83317768 353.22915455 -411.23632812 350.88085938 C-408.85444604 349.94266827 -406.46023782 349.20473191 -404 348.5 C-400.69325137 347.5479021 -397.54941388 346.45209611 -394.375 345.125 C-389.3094486 343.03166488 -384.13507148 341.45377233 -378.89746094 339.86035156 C-374.25199918 338.43216365 -369.77487431 336.77377688 -365.2890625 334.8984375 C-362.88654494 333.95546986 -360.47969426 333.2139677 -358 332.5 C-354.78785563 331.57094901 -351.714054 330.52897674 -348.625 329.25 C-334.36494671 323.41535224 -319.56907819 318.81225221 -305 313.8125 C-304.24864777 313.55460693 -303.49729553 313.29671387 -302.72317505 313.03100586 C-289.02305282 308.33076608 -289.02305282 308.33076608 -282.1875 306.07421875 C-275.22217591 303.76232142 -268.30368477 301.31802736 -261.37939453 298.88671875 C-256.02624403 297.00730074 -250.66788037 295.14308464 -245.30859375 293.28125 C-243.50062687 292.65241323 -241.69268426 292.02350671 -239.88476562 291.39453125 C-237.15891557 290.44621811 -234.43289811 289.4984031 -231.70629883 288.55224609 C-222.00329219 285.18446128 -212.30941776 281.79059013 -202.65234375 278.29296875 C-201.89481308 278.02315186 -201.13728241 277.75333496 -200.35679626 277.4753418 C-178.62934585 269.53246551 -160.9912666 252.42302012 -150.5625 231.9375 C-150.10363403 231.03789551 -150.10363403 231.03789551 -149.63549805 230.12011719 C-144.60843738 219.61215431 -142.08775365 207.9000662 -139.125 196.6875 C-138.95391724 196.0423645 -138.78283447 195.397229 -138.60656738 194.73254395 C-134.09570745 177.71947191 -129.6657458 160.69084424 -126.0546875 143.4609375 C-125.22577667 139.7518682 -124.19070972 136.11875345 -123.1328125 132.46875 C-120.89333702 124.73341361 -118.92916053 116.94149124 -117 109.125 C-116.66689492 107.78249543 -116.33356189 106.4400474 -116 105.09765625 C-115.33505545 102.42058651 -114.67126608 99.74323436 -114.00830078 97.06567383 C-111.73542414 87.89256612 -109.43616382 78.72602817 -107.125 69.5625 C-105.66680236 63.76225848 -104.26882657 57.94872227 -102.88476562 52.13037109 C-99.76932443 39.03790967 -96.45583771 26.00661751 -93 13 C-92.67 13.66 -92.34 14.32 -92 15 C-90.20698831 14.42081409 -88.41567597 13.83636745 -86.625 13.25 C-85.62726562 12.92515625 -84.62953125 12.6003125 -83.6015625 12.265625 C-80.913972 11.32117888 -78.30220455 10.32487805 -75.66796875 9.25 C-21.87323653 -12.40945797 -21.87323653 -12.40945797 0 0 Z " fill="#D2563C" transform="translate(928,386)"/>
<path d="M0 0 C-2.15109661 2.15109661 -3.38308025 2.63054412 -6.21875 3.5859375 C-7.0641333 3.87509033 -7.9095166 4.16424316 -8.78051758 4.4621582 C-9.67794678 4.763396 -10.57537598 5.06463379 -11.5 5.375 C-17.75391264 7.51244123 -23.93571568 9.71298759 -30.046875 12.234375 C-32.97019005 13.3803145 -35.97294757 14.17444025 -39 15 C-47.05205651 17.63774265 -55.06570504 20.39296814 -63.08325195 23.13354492 C-64.65060008 23.66878057 -66.21830814 24.20296341 -67.78637695 24.73608398 C-79.55440427 28.73327616 -79.55440427 28.73327616 -91.13696289 33.234375 C-99.13666872 36.52189662 -107.68488855 38.6500772 -116 41 C-116.10666992 41.62438965 -116.21333984 42.2487793 -116.32324219 42.89208984 C-117.72411297 50.85972295 -119.45175958 58.73898937 -121.25 66.625 C-121.55811429 67.98347782 -121.86621963 69.34195766 -122.17431641 70.70043945 C-125.0077264 83.15932905 -127.9583124 95.59029046 -131 108 C-131.16838379 108.70680908 -131.33676758 109.41361816 -131.51025391 110.1418457 C-132.13614111 112.51653538 -133.08845234 114.72113086 -134 117 C-134.165 117.70125 -134.33 118.4025 -134.5 119.125 C-135 121 -135 121 -137 124 C-137.20399529 126.25385784 -137.20399529 126.25385784 -137.0625 128.625 C-137.00825747 130.08247312 -136.97966458 131.54165964 -137 133 C-137.33 133.33 -137.66 133.66 -138 134 C-138.144375 135.155 -138.28875 136.31 -138.4375 137.5 C-138.623125 138.655 -138.80875 139.81 -139 141 C-139.66 141.33 -140.32 141.66 -141 142 C-140.95875 143.258125 -140.9175 144.51625 -140.875 145.8125 C-140.7609626 149.29064073 -140.94074319 149.91111478 -143 153 C-142.68770276 154.33841672 -142.35169068 155.67139075 -142 157 C-142.4375 159.75 -142.4375 159.75 -143 162 C-143.66 162 -144.32 162 -145 162 C-145 161.01 -145 160.02 -145 159 C-145.3403125 159.556875 -145.680625 160.11375 -146.03125 160.6875 C-153.3534923 172.21613681 -161.74169055 179.23324625 -175 183 C-178.33203125 183.30078125 -178.33203125 183.30078125 -181.8125 183.3125 C-182.95332031 183.32925781 -184.09414063 183.34601563 -185.26953125 183.36328125 C-194.1387634 182.49957592 -201.4393377 178.39495269 -209.125 174.125 C-210.17341064 173.54983643 -211.22182129 172.97467285 -212.30200195 172.38208008 C-220.2294202 168.01929596 -228.11067153 163.57457675 -235.97631836 159.1015625 C-245.2032993 153.85997741 -254.49745049 148.74283514 -263.8034668 143.64331055 C-290.64607181 128.89893974 -290.64607181 128.89893974 -293.4921875 120.24609375 C-294.75198069 114.67393155 -294.91349438 109.86212316 -292.375 104.6875 C-287.77001445 99.4765953 -283.70160878 96.53245815 -277.14453125 94.21484375 C-276.46268265 93.97040024 -275.78083405 93.72595673 -275.07832336 93.47410583 C-272.72362534 92.63526782 -270.36232978 91.81708493 -268 91 C-266.17353522 90.35990899 -264.34720684 89.71942868 -262.52099609 89.07861328 C-257.36038752 87.27450444 -252.19320538 85.48993839 -247.02392578 83.71084595 C-241.27877308 81.7334536 -235.53606448 79.74898185 -229.79296875 77.765625 C-228.63389008 77.3655574 -227.4748114 76.96548981 -226.28060913 76.55329895 C-215.01238163 72.66266068 -203.75458921 68.74238888 -192.5 64.8125 C-191.22145645 64.3662175 -191.22145645 64.3662175 -189.91708374 63.91091919 C-182.47400478 61.31276508 -175.03161795 58.71265928 -167.59204102 56.10449219 C-166.24565552 55.63265755 -166.24565552 55.63265755 -164.87207031 55.15129089 C-163.16091184 54.55152015 -161.44988356 53.95137775 -159.73901367 53.3507843 C-151.48840667 50.4590494 -143.19228891 47.71039147 -134.88867188 44.97509766 C-131.32069329 43.79866979 -127.75408871 42.6181341 -124.1875 41.4375 C-123.0420874 41.06125488 -121.8966748 40.68500977 -120.71655273 40.29736328 C-115.73807225 38.64763364 -110.8089338 36.96694879 -105.95703125 34.97265625 C-99.20978386 32.20971886 -92.23542048 30.1591123 -85.27734375 28 C-79.48827532 26.18159323 -73.83317768 24.22915455 -68.23632812 21.88085938 C-65.85444604 20.94266827 -63.46023782 20.20473191 -61 19.5 C-57.69325137 18.5479021 -54.54941388 17.45209611 -51.375 16.125 C-46.3094486 14.03166488 -41.13507148 12.45377233 -35.89746094 10.86035156 C-31.25989429 9.4345909 -26.78944352 7.78172634 -22.3125 5.90625 C-19.01356857 4.61342552 -15.63911023 3.65577971 -12.2265625 2.7109375 C-9.973257 2.05982736 -9.973257 2.05982736 -7.9140625 0.921875 C-5.24791279 -0.36222976 -2.9144692 -0.13247587 0 0 Z " fill="#C14B35" transform="translate(585,715)"/>
<path d="M0 0 C-2.15109661 2.15109661 -3.38308025 2.63054412 -6.21875 3.5859375 C-7.0641333 3.87509033 -7.9095166 4.16424316 -8.78051758 4.4621582 C-10.12666138 4.91401489 -10.12666138 4.91401489 -11.5 5.375 C-17.75391264 7.51244123 -23.93571568 9.71298759 -30.046875 12.234375 C-32.97019005 13.3803145 -35.97294757 14.17444025 -39 15 C-47.05205651 17.63774265 -55.06570504 20.39296814 -63.08325195 23.13354492 C-64.65060008 23.66878057 -66.21830814 24.20296341 -67.78637695 24.73608398 C-79.55440427 28.73327616 -79.55440427 28.73327616 -91.13696289 33.234375 C-99.13666872 36.52189662 -107.68488855 38.6500772 -116 41 C-116.10231934 41.60626221 -116.20463867 42.21252441 -116.31005859 42.8371582 C-117.79846928 51.35278078 -119.69786547 59.76358618 -121.625 68.1875 C-121.95334208 69.63081001 -122.28146852 71.07416909 -122.609375 72.51757812 C-123.40377017 76.01228679 -124.20106288 79.50632652 -125 83 C-125.33 83 -125.66 83 -126 83 C-125.31852289 75.65088888 -123.99516054 68.53626135 -122.5 61.3125 C-122.05123946 59.1212664 -121.6032961 56.92986526 -121.15625 54.73828125 C-120.95837891 53.77962158 -120.76050781 52.82096191 -120.55664062 51.83325195 C-119.97973686 48.89686238 -119.4783474 45.95390438 -119 43 C-124.57466789 43.67516436 -129.5637278 45.47775897 -134.8125 47.375 C-136.52710839 47.98763827 -138.2419509 48.59962173 -139.95703125 49.2109375 C-140.80346191 49.51354492 -141.64989258 49.81615234 -142.52197266 50.12792969 C-144.82314544 50.93776113 -147.13193453 51.7142776 -149.44921875 52.4765625 C-152.60030113 53.51826522 -155.72375979 54.61569107 -158.83984375 55.7578125 C-166.5097434 58.56650815 -174.22159919 61.25546271 -181.9309082 63.95361328 C-184.53322905 64.8647515 -187.13479362 65.77802563 -189.73632812 66.69140625 C-198.89229174 69.89991281 -208.05903231 73.06073397 -217.28822327 76.05343628 C-220.66468389 77.1604846 -223.8671734 78.31861628 -227 80 C-228.42711593 80.47026868 -229.86612064 80.90531548 -231.3125 81.3125 C-236.59593857 82.84461821 -241.79623218 84.58589887 -246.99731445 86.37426758 C-251.78609578 88 -251.78609578 88 -254 88 C-254 87.34 -254 86.68 -254 86 C-253.25593903 85.74436783 -252.51187805 85.48873566 -251.74526978 85.22535706 C-244.60121916 82.77086193 -237.45727028 80.31607098 -230.31342506 77.86097813 C-226.64406125 76.59995528 -222.97466325 75.33903212 -219.30517578 74.07836914 C-197.56075927 66.60789273 -175.82373941 59.11674254 -154.10928345 51.55950928 C-142.82479683 47.63536486 -131.51184306 43.80838769 -120.15649414 40.09375 C-115.37715341 38.5183282 -110.65554008 36.90137648 -106 34.98828125 C-99.23750327 32.2214967 -92.25033141 30.1637392 -85.27734375 28 C-79.48827532 26.18159323 -73.83317768 24.22915455 -68.23632812 21.88085938 C-65.85444604 20.94266827 -63.46023782 20.20473191 -61 19.5 C-57.69325137 18.5479021 -54.54941388 17.45209611 -51.375 16.125 C-46.3094486 14.03166488 -41.13507148 12.45377233 -35.89746094 10.86035156 C-31.25989429 9.4345909 -26.78944352 7.78172634 -22.3125 5.90625 C-19.01356857 4.61342552 -15.63911023 3.65577971 -12.2265625 2.7109375 C-9.973257 2.05982736 -9.973257 2.05982736 -7.9140625 0.921875 C-5.24791279 -0.36222976 -2.9144692 -0.13247587 0 0 Z " fill="#913827" transform="translate(585,715)"/>
<path d="M0 0 C-2.15109661 2.15109661 -3.38308025 2.63054412 -6.21875 3.5859375 C-7.48682495 4.01966675 -7.48682495 4.01966675 -8.78051758 4.4621582 C-10.12666138 4.91401489 -10.12666138 4.91401489 -11.5 5.375 C-17.75391264 7.51244123 -23.93571568 9.71298759 -30.046875 12.234375 C-32.97019005 13.3803145 -35.97294757 14.17444025 -39 15 C-47.05205651 17.63774265 -55.06570504 20.39296814 -63.08325195 23.13354492 C-64.65060008 23.66878057 -66.21830814 24.20296341 -67.78637695 24.73608398 C-79.55440427 28.73327616 -79.55440427 28.73327616 -91.13696289 33.234375 C-99.13666872 36.52189662 -107.68488855 38.6500772 -116 41 C-115.67 40.01 -115.34 39.02 -115 38 C-112.52163818 36.94505654 -110.15162716 36.09141718 -107.58984375 35.29296875 C-106.83014786 35.04509109 -106.07045197 34.79721344 -105.28773499 34.54182434 C-102.84116908 33.74567137 -100.38976766 32.96589442 -97.9375 32.1875 C-94.75735667 31.16555324 -91.57942608 30.13688903 -88.40234375 29.10546875 C-87.61413742 28.85041565 -86.82593109 28.59536255 -86.01383972 28.33258057 C-79.44719277 26.18937176 -72.98696187 23.80961469 -66.53491211 21.34594727 C-61.98611459 19.61395468 -57.40855396 17.9765384 -52.8125 16.375 C-51.97154785 16.08069092 -51.1305957 15.78638184 -50.26416016 15.4831543 C-44.4885225 13.47700243 -38.67473812 11.64920335 -32.81640625 9.8984375 C-29.26547166 8.76568444 -25.85727187 7.37211146 -22.41796875 5.94140625 C-19.08077681 4.64211181 -15.67583806 3.66594865 -12.2265625 2.7109375 C-9.973257 2.05982736 -9.973257 2.05982736 -7.9140625 0.921875 C-5.24791279 -0.36222976 -2.9144692 -0.13247587 0 0 Z " fill="#792F1F" transform="translate(585,715)"/>
<path d="M0 0 C-6.81428274 2.62719334 -13.71877982 4.97001069 -20.63905334 7.29980469 C-22.75943533 8.013698 -24.87923523 8.72929671 -26.99890137 9.4453125 C-32.26045229 11.22226361 -37.52297116 12.99634098 -42.78546143 14.77050781 C-47.24427172 16.2738505 -51.70270614 17.77829857 -56.16065979 19.28417969 C-58.23625791 19.9848126 -60.31238939 20.68384792 -62.3885498 21.3828125 C-63.676378 21.81762812 -64.96418005 22.25252117 -66.25195312 22.6875 C-67.43345947 23.08582031 -68.61496582 23.48414063 -69.83227539 23.89453125 C-72.48172734 24.81913383 -75.0719182 25.81773898 -77.66992188 26.875 C-81.04333122 28.01463858 -81.80569028 28.01667791 -85 27 C-82.33531912 25.99446005 -79.66847869 24.99538491 -77 24 C-76.16726563 23.68675781 -75.33453125 23.37351562 -74.4765625 23.05078125 C-69.54466277 21.22120555 -64.60619053 19.55871441 -59.5625 18.0625 C-55.20249222 16.75191778 -51.05387383 15.24311948 -46.875 13.4375 C-42.12540694 11.38939506 -37.42344902 9.89539197 -32.4140625 8.625 C-30.418017 8.10822446 -28.45253474 7.47496714 -26.5 6.8125 C-24 6 -24 6 -21 6 C-21 5.34 -21 4.68 -21 4 C-20.175 3.896875 -19.35 3.79375 -18.5 3.6875 C-15.08671106 3.01703253 -12.14218287 2.00890878 -8.9296875 0.71875 C-3.69407266 -1.23135755 -3.69407266 -1.23135755 0 0 Z " fill="#EE7959" transform="translate(769,883)"/>
<path d="M0 0 C-3.98082813 2.07402929 -7.90502685 3.76387295 -12.15625 5.19921875 C-13.33372803 5.60019775 -14.51120605 6.00117676 -15.72436523 6.41430664 C-16.97032471 6.83446045 -18.21628418 7.25461426 -19.5 7.6875 C-22.1064656 8.57260996 -24.71169696 9.46129833 -27.31640625 10.3515625 C-27.96634048 10.57350784 -28.61627472 10.79545319 -29.28590393 11.02412415 C-36.27501652 13.42054922 -43.20839426 15.96696675 -50.12109375 18.57495117 C-54.41345141 20.16991415 -58.42044582 21.45641064 -63 22 C-63 21.34 -63 20.68 -63 20 C-41.16689666 11.99180886 -41.16689666 11.99180886 -32.20703125 9.06640625 C-27.64270567 7.5486707 -23.10306142 5.96220894 -18.5625 4.375 C-17.2638501 3.92241821 -17.2638501 3.92241821 -15.93896484 3.46069336 C-12.60624614 2.29342736 -9.30583974 1.12783777 -6.046875 -0.234375 C-3.61410462 -1.14434255 -2.40148013 -0.88943708 0 0 Z " fill="#813222" transform="translate(681,682)"/>
<path d="M0 0 C-14.53582611 5.60604269 -29.00426727 10.76207553 -44 15 C-43.67 14.01 -43.34 13.02 -43 12 C-40.37227235 10.88807874 -37.8445628 9.97281371 -35.1328125 9.1171875 C-34.34228485 8.85745148 -33.5517572 8.59771545 -32.73727417 8.33010864 C-30.20337556 7.50042779 -27.66443413 6.68756133 -25.125 5.875 C-23.42021415 5.32011146 -21.71578194 4.76413513 -20.01171875 4.20703125 C-16.88641827 3.18707884 -13.75929646 2.17322375 -10.62939453 1.16748047 C-3.56273672 -1.10567691 -3.56273672 -1.10567691 0 0 Z " fill="#702B1B" transform="translate(513,741)"/>
<path d="M0 0 C0.99 0.33 1.98 0.66 3 1 C0.46998499 3.53001501 -1.7274729 4.09130168 -5.1171875 5.2421875 C-6.365 5.66886719 -7.6128125 6.09554687 -8.8984375 6.53515625 C-10.22392186 6.98187907 -11.54944288 7.42849313 -12.875 7.875 C-14.16163854 8.3132734 -15.44809888 8.75207033 -16.734375 9.19140625 C-20.48626828 10.4708113 -24.24320241 11.73506815 -28 13 C-29.17208008 13.39993164 -30.34416016 13.79986328 -31.55175781 14.21191406 C-32.63038086 14.57768555 -33.70900391 14.94345703 -34.8203125 15.3203125 C-36.25141357 15.80781982 -36.25141357 15.80781982 -37.71142578 16.30517578 C-40 17 -40 17 -42 17 C-42 16.34 -42 15.68 -42 15 C-36.04453553 12.78150871 -30.12672289 10.70186747 -24 9 C-22.47738286 8.48440478 -20.95663782 7.96325818 -19.4375 7.4375 C-15.97856743 6.26477971 -12.63427166 5.46593226 -9 5 C-9 4.34 -9 3.68 -9 3 C-8.43410156 2.86722656 -7.86820313 2.73445312 -7.28515625 2.59765625 C-6.18494141 2.33275391 -6.18494141 2.33275391 -5.0625 2.0625 C-3.96615234 1.80146484 -3.96615234 1.80146484 -2.84765625 1.53515625 C-1.00030102 1.16112431 -1.00030102 1.16112431 0 0 Z " fill="#F27454" transform="translate(678,911)"/>
<path d="M0 0 C0 0.66 0 1.32 0 2 C-3.47564634 3.3012762 -6.95609573 4.58921619 -10.4375 5.875 C-11.41138672 6.23980469 -12.38527344 6.60460937 -13.38867188 6.98046875 C-19.22101415 9.12614651 -24.90072604 10.80159043 -31 12 C-28.58678469 8.38017703 -27.26802346 8.11769826 -23.22265625 6.73828125 C-22.06958984 6.34189453 -20.91652344 5.94550781 -19.72851562 5.53710938 C-17.91383789 4.93092773 -17.91383789 4.93092773 -16.0625 4.3125 C-14.25362305 3.68891602 -14.25362305 3.68891602 -12.40820312 3.05273438 C-3.4304572 0 -3.4304572 0 0 0 Z " fill="#7E3120" transform="translate(617,703)"/>
<path d="M0 0 C0.66 0 1.32 0 2 0 C0.55014826 3.78572399 -1.12713008 4.92334897 -4.75 6.625 C-5.59046875 7.02976562 -6.4309375 7.43453125 -7.296875 7.8515625 C-12.88769133 10.22685152 -17.2561344 11.24045029 -23.375 11.125 C-24.62023437 11.10695313 -25.86546875 11.08890625 -27.1484375 11.0703125 C-28.55996094 11.03550781 -28.55996094 11.03550781 -30 11 C-30.33 10.34 -30.66 9.68 -31 9 C-29.54166667 8.85416667 -28.08333333 8.70833333 -26.625 8.5625 C-25.71234375 8.46710937 -24.7996875 8.37171875 -23.859375 8.2734375 C-22.03934523 8.09939094 -20.21600661 7.95540157 -18.390625 7.8515625 C-13.07801899 7.5050882 -9.22419429 6.50614466 -4.59375 3.83984375 C-3 3 -3 3 -1 3 C-0.67 2.01 -0.34 1.02 0 0 Z " fill="#D25941" transform="translate(426,887)"/>
<path d="M0 0 C0.66 0 1.32 0 2 0 C1.24752475 7.27392739 1.24752475 7.27392739 0.0625 10.75 C-1.19255429 14.58898959 -1.92142916 18.40485027 -2.625 22.375 C-2.7590625 23.11105469 -2.893125 23.84710937 -3.03125 24.60546875 C-3.35806327 26.40294172 -3.67958011 28.20137633 -4 30 C-4.66 29.67 -5.32 29.34 -6 29 C-5.23746012 22.75067891 -3.86099489 16.69110404 -2.4375 10.5625 C-2.20353516 9.54478516 -1.96957031 8.52707031 -1.72851562 7.47851562 C-1.15490697 4.98507393 -0.57867103 2.49227078 0 0 Z " fill="#2C100D" transform="translate(935,489)"/>
<path d="M0 0 C0.99 0.66 1.98 1.32 3 2 C-2.64664804 4.72249102 -8.35456262 6.89117332 -14.3125 8.8125 C-15.00601563 9.04348389 -15.69953125 9.27446777 -16.4140625 9.51245117 C-20.0542474 10.65619373 -22.36789133 11.13150891 -26 10 C-25.13834229 9.7054895 -25.13834229 9.7054895 -24.25927734 9.4050293 C-21.62968104 8.5035064 -19.00234558 7.59556033 -16.375 6.6875 C-15.47136719 6.37876953 -14.56773437 6.07003906 -13.63671875 5.75195312 C-8.90109647 4.11004029 -4.41253241 2.38218112 0 0 Z " fill="#F07050" transform="translate(586,942)"/>
<path d="M0 0 C0.66 0.33 1.32 0.66 2 1 C-13.14624506 9 -13.14624506 9 -20 9 C-20.33 9.66 -20.66 10.32 -21 11 C-22.65 10.67 -24.3 10.34 -26 10 C-22.57525439 7.71683626 -19.15045169 6.71199443 -15.25 5.5625 C-11.08843116 4.33188683 -7.06366256 3.07931054 -3.109375 1.27734375 C-1.57023438 0.64505859 -1.57023438 0.64505859 0 0 Z " fill="#291310" transform="translate(702,905)"/>
<path d="M0 0 C0.66 0.66 1.32 1.32 2 2 C-1.66138124 3.34820954 -5.3298999 4.67573708 -9 6 C-10.28390625 6.47953125 -10.28390625 6.47953125 -11.59375 6.96875 C-12.3671875 7.2471875 -13.140625 7.525625 -13.9375 7.8125 C-14.62714844 8.06644531 -15.31679688 8.32039062 -16.02734375 8.58203125 C-18.33451847 9.07087817 -19.78132676 8.7296308 -22 8 C-20.75336669 7.49166409 -19.50250613 6.99368855 -18.25 6.5 C-17.55390625 6.2215625 -16.8578125 5.943125 -16.140625 5.65625 C-14 5 -14 5 -10 5 C-10 4.34 -10 3.68 -10 3 C-9.278125 2.87625 -8.55625 2.7525 -7.8125 2.625 C-5.04278106 2.0095069 -2.6029646 1.11555626 0 0 Z " fill="#F07151" transform="translate(632,927)"/>
<path d="M0 0 C-2.4750729 2.96841514 -4.81070736 3.80587849 -8.5 4.8125 C-9.93859375 5.22435547 -9.93859375 5.22435547 -11.40625 5.64453125 C-14 6 -14 6 -17 4 C-14.54453034 3.13670227 -12.08621957 2.28410564 -9.625 1.4375 C-8.57699219 1.0672168 -8.57699219 1.0672168 -7.5078125 0.68945312 C-2.2265625 -1.11328125 -2.2265625 -1.11328125 0 0 Z " fill="#803422" transform="translate(547,728)"/>
<path d="M0 0 C-1.32 0.33 -2.64 0.66 -4 1 C-4 1.66 -4 2.32 -4 3 C-4.70125 3.12375 -5.4025 3.2475 -6.125 3.375 C-9.17656387 4.03838345 -12.05340938 4.97211955 -15 6 C-15.33 5.01 -15.66 4.02 -16 3 C-14.08802961 2.29954544 -12.17019565 1.615081 -10.25 0.9375 C-9.18265625 0.55464844 -8.1153125 0.17179688 -7.015625 -0.22265625 C-4.07719958 -0.98010011 -2.77651052 -1.07151741 0 0 Z " fill="#1D0D0B" transform="translate(604,941)"/>
<path d="M0 0 C0.66 0 1.32 0 2 0 C0.54663682 3.80797391 -1.17908118 4.96067277 -4.8125 6.6875 C-6.09060547 7.31205078 -6.09060547 7.31205078 -7.39453125 7.94921875 C-9.93663655 8.97444562 -12.30087623 9.55903005 -15 10 C-15 9.34 -15 8.68 -15 8 C-13.22934889 7.35366725 -11.45847247 6.7079517 -9.6875 6.0625 C-8.20830078 5.52302734 -8.20830078 5.52302734 -6.69921875 4.97265625 C-4.8079437 4.29114035 -2.90715671 3.6357189 -1 3 C-0.67 2.01 -0.34 1.02 0 0 Z " fill="#E66246" transform="translate(426,887)"/>
<path d="M0 0 C0.66 0.99 1.32 1.98 2 3 C0.0429132 3.67031719 -1.91571113 4.33614683 -3.875 5 C-4.96554687 5.37125 -6.05609375 5.7425 -7.1796875 6.125 C-10 7 -10 7 -12 7 C-12 6.34 -12 5.68 -12 5 C-10.82630859 4.58427734 -10.82630859 4.58427734 -9.62890625 4.16015625 C-8.61699219 3.79792969 -7.60507812 3.43570313 -6.5625 3.0625 C-5.55316406 2.70285156 -4.54382813 2.34320312 -3.50390625 1.97265625 C-1.09686255 1.23122361 -1.09686255 1.23122361 0 0 Z " fill="#DE694B" transform="translate(648,921)"/>
<path d="M0 0 C4.07583802 1.2322301 7.38522281 2.77552173 11 5 C12.65369357 5.69822617 14.31727014 6.37498605 16 7 C16 7.66 16 8.32 16 9 C10.0942118 7.44584521 5.02261107 4.40465533 0 1 C0 0.67 0 0.34 0 0 Z " fill="#E26147" transform="translate(375,887)"/>
<path d="M0 0 C-2.64506516 1.76337678 -4.59213967 2.6560851 -7.5625 3.625 C-8.74005859 4.01558594 -8.74005859 4.01558594 -9.94140625 4.4140625 C-12 5 -12 5 -14 5 C-14 4.34 -14 3.68 -14 3 C-9.07015675 0.96006486 -5.42039575 -0.40652968 0 0 Z " fill="#783020" transform="translate(632,699)"/>
<path d="M0 0 C-1 2 -1 2 -3.625 3.125 C-7.21810788 4.05654649 -10.30415624 4.14783375 -14 4 C-11.37350692 2.24900461 -9.38191413 1.30690675 -6.4375 0.3125 C-5.65246094 0.04050781 -4.86742187 -0.23148438 -4.05859375 -0.51171875 C-2 -1 -2 -1 0 0 Z " fill="#8B3927" transform="translate(642,695)"/>
<path d="M0 0 C0.70125 0.721875 1.4025 1.44375 2.125 2.1875 C4.92770745 4.99823813 7.92262792 7.49516226 11 10 C10.01 10.33 9.02 10.66 8 11 C4.70793266 8.77785455 2.0813566 6.39589761 0 3 C0 2.01 0 1.02 0 0 Z " fill="#D8684A" transform="translate(431,965)"/>
<path d="M0 0 C0.66 0 1.32 0 2 0 C1.14285714 8.57142857 1.14285714 8.57142857 -1 12 C-2.36884358 7.48281619 -1.47075246 4.41225737 0 0 Z " fill="#CD6248" transform="translate(317,654)"/>
<path d="M0 0 C0.99 0.66 1.98 1.32 3 2 C1.5437455 2.67119549 0.08492133 3.33681807 -1.375 4 C-2.59316406 4.556875 -2.59316406 4.556875 -3.8359375 5.125 C-6 6 -6 6 -8 6 C-8 5.34 -8 4.68 -8 4 C-5.36 2.68 -2.72 1.36 0 0 Z " fill="#E96A4B" transform="translate(586,942)"/>
<path d="M0 0 C1.31534494 3.65857532 0.65468309 6.08026481 -0.4375 9.75 C-0.86869141 11.22726562 -0.86869141 11.22726562 -1.30859375 12.734375 C-1.53675781 13.48203125 -1.76492188 14.2296875 -2 15 C-3.2961068 10.64391174 -2.77842494 7.45825192 -2 3 C-1.34 2.01 -0.68 1.02 0 0 Z " fill="#EE5D44" transform="translate(929,510)"/>
<path d="M0 0 C0.96661363 3.12180401 0.98988909 5.52083795 0.5625 8.75 C0.40974609 9.94882812 0.40974609 9.94882812 0.25390625 11.171875 C0.12822266 12.07679688 0.12822266 12.07679688 0 13 C-0.66 13 -1.32 13 -2 13 C-1.85851011 11.3954444 -1.71164314 9.79136233 -1.5625 8.1875 C-1.48128906 7.29417969 -1.40007813 6.40085937 -1.31640625 5.48046875 C-1 3 -1 3 0 0 Z " fill="#371511" transform="translate(921,551)"/>
<path d="M0 0 C-1.62249941 0.83819158 -3.24808497 1.6704116 -4.875 2.5 C-6.23238281 3.19609375 -6.23238281 3.19609375 -7.6171875 3.90625 C-10 5 -10 5 -12 5 C-12 4.34 -12 3.68 -12 3 C-10.3789897 2.30314502 -8.75303934 1.61777139 -7.125 0.9375 C-6.22007812 0.55464844 -5.31515625 0.17179688 -4.3828125 -0.22265625 C-2 -1 -2 -1 0 0 Z " fill="#3A1B15" transform="translate(704,906)"/>
<path d="M0 0 C0 0.66 0 1.32 0 2 C-4.95 3.485 -4.95 3.485 -10 5 C-9.67 4.01 -9.34 3.02 -9 2 C-5.82757352 0.68964993 -3.44118336 0 0 0 Z " fill="#873423" transform="translate(692,677)"/>
<path d="M0 0 C1.07310858 3.27185553 0.89263102 5.42947592 0.0625 8.75 C-0.13214844 9.54921875 -0.32679688 10.3484375 -0.52734375 11.171875 C-0.68332031 11.77515625 -0.83929688 12.3784375 -1 13 C-1.33 13 -1.66 13 -2 13 C-2.05416188 11.39620659 -2.09286638 9.79188594 -2.125 8.1875 C-2.14820313 7.29417969 -2.17140625 6.40085937 -2.1953125 5.48046875 C-2 3 -2 3 0 0 Z " fill="#A03B27" transform="translate(294,818)"/>
<path d="M0 0 C-3.42346555 3.14958831 -6.44262737 3.56179109 -11 4 C-7.64191281 0.32209498 -4.88401581 -0.13200043 0 0 Z " fill="#6E2819" transform="translate(557,725)"/>
<path d="M0 0 C0.33 0 0.66 0 1 0 C0.88610125 1.79240663 0.75852313 3.58394835 0.625 5.375 C0.52058594 6.87160156 0.52058594 6.87160156 0.4140625 8.3984375 C0 11 0 11 -2 13 C-3.18771723 9.57056481 -2.80226223 7.62215325 -1.5625 4.25 C-1.27503906 3.45078125 -0.98757813 2.6515625 -0.69140625 1.828125 C-0.46324219 1.22484375 -0.23507812 0.6215625 0 0 Z " fill="#EB6A4F" transform="translate(888,688)"/>
<path d="M0 0 C-1.32 0.33 -2.64 0.66 -4 1 C-4 1.66 -4 2.32 -4 3 C-5.8125 3.625 -5.8125 3.625 -8 4 C-8.99 3.34 -9.98 2.68 -11 2 C-9.54494642 1.47007308 -8.08581873 0.9513211 -6.625 0.4375 C-5.81289063 0.14746094 -5.00078125 -0.14257812 -4.1640625 -0.44140625 C-2 -1 -2 -1 0 0 Z " fill="#3B1D17" transform="translate(751,890)"/>
<path d="M0 0 C-2.71182212 2.60334924 -3.89133813 2.99456691 -7.75 3.1875 C-8.8225 3.125625 -9.895 3.06375 -11 3 C-3.71428571 -1.85714286 -3.71428571 -1.85714286 0 0 Z " fill="#49251E" transform="translate(780,880)"/>
<path d="M0 0 C2.97 0.495 2.97 0.495 6 1 C2.81237635 3.12508244 0.73487777 3.5020163 -3 4 C-3 3.34 -3 2.68 -3 2 C-2.01 2 -1.02 2 0 2 C0 1.34 0 0.68 0 0 Z " fill="#D05E43" transform="translate(607,935)"/>
<path d="M0 0 C2.97 0 5.94 0 9 0 C7.515 1.485 7.515 1.485 6 3 C5.01 3 4.02 3 3 3 C3 2.34 3 1.68 3 1 C2.01 0.67 1.02 0.34 0 0 Z " fill="#130A09" transform="translate(400,898)"/>
<path d="M0 0 C0 0.66 0 1.32 0 2 C-4.625 4.125 -4.625 4.125 -8 3 C-3.375 0 -3.375 0 0 0 Z " fill="#742B1C" transform="translate(617,703)"/>
<path d="M0 0 C0.66 0 1.32 0 2 0 C1.67 2.64 1.34 5.28 1 8 C0.34 8 -0.32 8 -1 8 C-0.67 5.36 -0.34 2.72 0 0 Z " fill="#D4664C" transform="translate(313,671)"/>
</svg>
